{
    "asset" : {
        "generator" : "Khronos glTF Blender I/O v1.6.16",
        "version" : "2.0"
    },
    "scene" : 0,
    "scenes" : [
        {
            "name" : "Scene",
            "nodes" : [
                4
            ]
        }
    ],
    "nodes" : [
        {
            "name" : "spine3",
            "rotation" : [
                1.4945053194992397e-08,
                -1.9189740907421537e-09,
                -0.3826834559440613,
                0.9238795638084412
            ],
            "translation" : [
                0,
                0.25,
                2.220446049250313e-16
            ]
        },
        {
            "children" : [
                0
            ],
            "name" : "spine2",
            "rotation" : [
                -1.6756814602558734e-08,
                0,
                0,
                1
            ],
            "translation" : [
                0,
                0.15000000596046448,
                0
            ]
        },
        {
            "children" : [
                1
            ],
            "name" : "spine1",
            "rotation" : [
                3.8083656228593554e-09,
                0,
                0,
                1
            ]
        },
        {
            "mesh" : 0,
            "name" : "Cube",
            "skin" : 0
        },
        {
            "children" : [
                3,
                2
            ],
            "name" : "Armature",
            "translation" : [
                0,
                0.6000000238418579,
                0
            ]
        }
    ],
    "materials" : [
        {
            "doubleSided" : true,
            "name" : "Material",
            "pbrMetallicRoughness" : {
                "baseColorFactor" : [
                    0.800000011920929,
                    0.800000011920929,
                    0.800000011920929,
                    1
                ],
                "metallicFactor" : 0,
                "roughnessFactor" : 0.4000000059604645
            }
        }
    ],
    "meshes" : [
        {
            "name" : "Cube",
            "primitives" : [
                {
                    "attributes" : {
                        "POSITION" : 0,
                        "NORMAL" : 1,
                        "TEXCOORD_0" : 2,
                        "COLOR_0" : 3,
                        "JOINTS_0" : 4,
                        "WEIGHTS_0" : 5
                    },
                    "indices" : 6,
                    "material" : 0
                }
            ]
        }
    ],
    "skins" : [
        {
            "inverseBindMatrices" : 7,
            "joints" : [
                2,
                1,
                0
            ],
            "name" : "Armature"
        }
    ],
    "accessors" : [
        {
            "bufferView" : 0,
            "componentType" : 5126,
            "count" : 639,
            "max" : [
                0.8554629683494568,
                1.6988528966903687,
                0.15331873297691345
            ],
            "min" : [
                -0.8554629683494568,
                0.007317006587982178,
                -0.15331873297691345
            ],
            "type" : "VEC3"
        },
        {
            "bufferView" : 1,
            "componentType" : 5126,
            "count" : 639,
            "type" : "VEC3"
        },
        {
            "bufferView" : 2,
            "componentType" : 5126,
            "count" : 639,
            "type" : "VEC2"
        },
        {
            "bufferView" : 3,
            "componentType" : 5123,
            "count" : 639,
            "normalized" : true,
            "type" : "VEC4"
        },
        {
            "bufferView" : 4,
            "componentType" : 5121,
            "count" : 639,
            "type" : "VEC4"
        },
        {
            "bufferView" : 5,
            "componentType" : 5126,
            "count" : 639,
            "type" : "VEC4"
        },
        {
            "bufferView" : 6,
            "componentType" : 5123,
            "count" : 1044,
            "type" : "SCALAR"
        },
        {
            "bufferView" : 7,
            "componentType" : 5126,
            "count" : 3,
            "type" : "MAT4"
        }
    ],
    "bufferViews" : [
        {
            "buffer" : 0,
            "byteLength" : 7668,
            "byteOffset" : 0
        },
        {
            "buffer" : 0,
            "byteLength" : 7668,
            "byteOffset" : 7668
        },
        {
            "buffer" : 0,
            "byteLength" : 5112,
            "byteOffset" : 15336
        },
        {
            "buffer" : 0,
            "byteLength" : 5112,
            "byteOffset" : 20448
        },
        {
            "buffer" : 0,
            "byteLength" : 2556,
            "byteOffset" : 25560
        },
        {
            "buffer" : 0,
            "byteLength" : 10224,
            "byteOffset" : 28116
        },
        {
            "buffer" : 0,
            "byteLength" : 2088,
            "byteOffset" : 38340
        },
        {
            "buffer" : 0,
            "byteLength" : 192,
            "byteOffset" : 40428
        }
    ],
    "buffers" : [
        {
            "byteLength" : 40620,
            "uri" : "little_ron.bin"
        }
    ]
}
