{
    "asset" : {
        "generator" : "Khronos glTF Blender I/O v1.6.16",
        "version" : "2.0"
    },
    "scene" : 0,
    "scenes" : [
        {
            "name" : "Scene",
            "nodes" : [
                4
            ]
        }
    ],
    "nodes" : [
        {
            "name" : "spine3",
            "rotation" : [
                -8.720564714792545e-09,
                -1.1654167408892135e-08,
                -0.3373700678348541,
                0.9413720965385437
            ],
            "scale" : [
                1,
                0.9999999403953552,
                1
            ],
            "translation" : [
                -2.3018209560632386e-08,
                0.20000001788139343,
                -7.404596853472379e-16
            ]
        },
        {
            "children" : [
                0
            ],
            "name" : "spine2",
            "rotation" : [
                -9.159117020374197e-09,
                7.158499926163131e-08,
                -0.19382476806640625,
                0.9810361862182617
            ],
            "translation" : [
                -5.412336715652046e-16,
                0.2162480354309082,
                1.5543122344752192e-15
            ]
        },
        {
            "children" : [
                1
            ],
            "name" : "spine1",
            "rotation" : [
                2.2783806841175647e-08,
                -7.475937024992163e-08,
                0.19382476806640625,
                0.9810361862182617
            ],
            "scale" : [
                1,
                1,
                1.0000001192092896
            ]
        },
        {
            "mesh" : 0,
            "name" : "Cube",
            "skin" : 0
        },
        {
            "children" : [
                3,
                2
            ],
            "name" : "Armature",
            "translation" : [
                0,
                0.6000000238418579,
                0
            ]
        }
    ],
    "animations" : [
        {
            "channels" : [
                {
                    "sampler" : 0,
                    "target" : {
                        "node" : 1,
                        "path" : "rotation"
                    }
                }
            ],
            "name" : "bow",
            "samplers" : [
                {
                    "input" : 8,
                    "interpolation" : "CUBICSPLINE",
                    "output" : 9
                }
            ]
        }
    ],
    "materials" : [
        {
            "doubleSided" : true,
            "name" : "Material",
            "pbrMetallicRoughness" : {
                "baseColorFactor" : [
                    0.800000011920929,
                    0.800000011920929,
                    0.800000011920929,
                    1
                ],
                "metallicFactor" : 0,
                "roughnessFactor" : 0.4000000059604645
            }
        }
    ],
    "meshes" : [
        {
            "name" : "Cube",
            "primitives" : [
                {
                    "attributes" : {
                        "POSITION" : 0,
                        "NORMAL" : 1,
                        "TEXCOORD_0" : 2,
                        "COLOR_0" : 3,
                        "JOINTS_0" : 4,
                        "WEIGHTS_0" : 5
                    },
                    "indices" : 6,
                    "material" : 0
                }
            ]
        }
    ],
    "skins" : [
        {
            "inverseBindMatrices" : 7,
            "joints" : [
                2,
                1,
                0
            ],
            "name" : "Armature"
        }
    ],
    "accessors" : [
        {
            "bufferView" : 0,
            "componentType" : 5126,
            "count" : 639,
            "max" : [
                0.8554629683494568,
                1.6988528966903687,
                0.15331873297691345
            ],
            "min" : [
                -0.8554629683494568,
                0.007317006587982178,
                -0.15331873297691345
            ],
            "type" : "VEC3"
        },
        {
            "bufferView" : 1,
            "componentType" : 5126,
            "count" : 639,
            "type" : "VEC3"
        },
        {
            "bufferView" : 2,
            "componentType" : 5126,
            "count" : 639,
            "type" : "VEC2"
        },
        {
            "bufferView" : 3,
            "componentType" : 5123,
            "count" : 639,
            "normalized" : true,
            "type" : "VEC4"
        },
        {
            "bufferView" : 4,
            "componentType" : 5121,
            "count" : 639,
            "type" : "VEC4"
        },
        {
            "bufferView" : 5,
            "componentType" : 5126,
            "count" : 639,
            "type" : "VEC4"
        },
        {
            "bufferView" : 6,
            "componentType" : 5123,
            "count" : 1044,
            "type" : "SCALAR"
        },
        {
            "bufferView" : 7,
            "componentType" : 5126,
            "count" : 3,
            "type" : "MAT4"
        },
        {
            "bufferView" : 8,
            "componentType" : 5126,
            "count" : 5,
            "max" : [
                4.166666666666667
            ],
            "min" : [
                0.041666666666666664
            ],
            "type" : "SCALAR"
        },
        {
            "bufferView" : 9,
            "componentType" : 5126,
            "count" : 15,
            "type" : "VEC4"
        }
    ],
    "bufferViews" : [
        {
            "buffer" : 0,
            "byteLength" : 7668,
            "byteOffset" : 0
        },
        {
            "buffer" : 0,
            "byteLength" : 7668,
            "byteOffset" : 7668
        },
        {
            "buffer" : 0,
            "byteLength" : 5112,
            "byteOffset" : 15336
        },
        {
            "buffer" : 0,
            "byteLength" : 5112,
            "byteOffset" : 20448
        },
        {
            "buffer" : 0,
            "byteLength" : 2556,
            "byteOffset" : 25560
        },
        {
            "buffer" : 0,
            "byteLength" : 10224,
            "byteOffset" : 28116
        },
        {
            "buffer" : 0,
            "byteLength" : 2088,
            "byteOffset" : 38340
        },
        {
            "buffer" : 0,
            "byteLength" : 192,
            "byteOffset" : 40428
        },
        {
            "buffer" : 0,
            "byteLength" : 20,
            "byteOffset" : 40620
        },
        {
            "buffer" : 0,
            "byteLength" : 240,
            "byteOffset" : 40640
        }
    ],
    "buffers" : [
        {
            "byteLength" : 40880,
            "uri" : "little_ron.bin"
        }
    ]
}
